<?xml version="1.0" encoding="UTF-8" standalone="no"?>
<!-- Created with Inkscape (http://www.inkscape.org/) -->

<svg
   xmlns:dc="http://purl.org/dc/elements/1.1/"
   xmlns:cc="http://creativecommons.org/ns#"
   xmlns:rdf="http://www.w3.org/1999/02/22-rdf-syntax-ns#"
   xmlns:svg="http://www.w3.org/2000/svg"
   xmlns="http://www.w3.org/2000/svg"
   xmlns:sodipodi="http://sodipodi.sourceforge.net/DTD/sodipodi-0.dtd"
   xmlns:inkscape="http://www.inkscape.org/namespaces/inkscape"
   width="155"
   height="35"
   viewBox="0 0 41.010414 9.2604172"
   version="1.1"
   id="svg8"
   inkscape:export-filename="/home/mrkoy/Downloads/blogger_linuxitos.png"
   inkscape:export-xdpi="96"
   inkscape:export-ydpi="96"
   inkscape:version="0.92.3 (2405546, 2018-03-11)"
   sodipodi:docname="logo_navbar.svg">
  <defs
     id="defs2" />
  <sodipodi:namedview
     id="base"
     pagecolor="#ffffff"
     bordercolor="#666666"
     borderopacity="1.0"
     inkscape:pageopacity="0.0"
     inkscape:pageshadow="2"
     inkscape:zoom="4"
     inkscape:cx="60.544056"
     inkscape:cy="15.372755"
     inkscape:document-units="px"
     inkscape:current-layer="g979"
     showgrid="false"
     units="px"
     inkscape:window-width="1920"
     inkscape:window-height="1051"
     inkscape:window-x="0"
     inkscape:window-y="0"
     inkscape:window-maximized="1"
     inkscape:snap-global="false"
     showguides="true"
     inkscape:guide-bbox="true">
    <sodipodi:guide
       position="-74.943224,-28.839585"
       orientation="0,1"
       id="guide997"
       inkscape:locked="false" />
  </sodipodi:namedview>
  <metadata
     id="metadata5">
    <rdf:RDF>
      <cc:Work
         rdf:about="">
        <dc:format>image/svg+xml</dc:format>
        <dc:type
           rdf:resource="http://purl.org/dc/dcmitype/StillImage" />
        <dc:title></dc:title>
      </cc:Work>
    </rdf:RDF>
  </metadata>
  <g
     inkscape:label="Layer 1"
     inkscape:groupmode="layer"
     id="layer1"
     transform="translate(0,-287.73958)">
    <g
       id="g896">
      <g
         id="g979"
         transform="matrix(0.08878944,0,0,0.08878944,15.671153,247.86711)">
        <path
           style="fill:#3698da;stroke-width:0.26458335"
           d="m -131.60928,480.33975 c -2.86698,-0.95088 -5.14725,-2.85096 -6.3351,-5.27884 -3.07773,-6.29065 0.7003,-13.61177 7.57741,-14.6836 6.84231,-1.06641 12.86338,5.02059 11.62333,11.75061 -0.64432,3.49687 -2.63524,6.10348 -5.78907,7.57933 -1.42521,0.66693 -2.16668,0.83922 -3.88956,0.90377 -1.27679,0.0478 -2.55222,-0.0607 -3.18701,-0.27127 z"
           id="path989"
           inkscape:connector-curvature="0"
           sodipodi:nodetypes="csssccc" />
        <path
           style="fill:#e64c3d;stroke-width:0.26458335"
           d="m 95.183061,480.21045 c -2.759334,-0.78286 -5.276244,-2.96982 -6.553443,-5.69432 -0.615424,-1.31281 -0.7039,-1.83482 -0.7039,-4.15295 0,-2.45517 0.06347,-2.78032 0.857588,-4.39341 1.032825,-2.09796 2.925249,-3.95592 5.037839,-4.94609 1.324816,-0.62095 1.841836,-0.7091 4.158736,-0.7091 2.316909,0 2.833929,0.0881 4.158749,0.7091 2.12325,0.99517 4.01566,2.85637 5.03893,4.95586 0.78671,1.61406 0.84908,1.93962 0.84079,4.38921 -0.008,2.28774 -0.10329,2.85064 -0.70612,4.15916 -1.62978,3.53766 -4.89907,5.74544 -8.775029,5.92583 -1.27095,0.0591 -2.63754,-0.04 -3.35414,-0.24329 z"
           id="path987"
           inkscape:connector-curvature="0"
           sodipodi:nodetypes="cssccscccccc" />
        <path
           style="fill:#ffffff;stroke-width:0.26458335"
           d="m -15.145461,539.84945 c -7.778628,-1.69409 -13.859878,-6.80862 -16.553878,-13.92235 -0.385766,-1.01864 -0.946002,-2.92364 -1.244968,-4.23333 -0.506352,-2.21817 -0.551011,-3.4223 -0.652121,-17.58239 -0.11842,-16.58438 -0.10014,-16.83183 1.346443,-18.22693 1.420749,-1.37019 3.471487,-1.76159 5.277051,-1.00718 0.993384,0.41507 2.50004,2.03217 2.691247,2.88854 0.07251,0.32475 0.170931,7.31749 0.218717,15.53942 0.0834,14.34988 0.109736,15.03147 0.657048,17.00782 0.750298,2.70933 1.34471,3.99349 2.640989,5.70552 2.031574,2.68317 5.247391,4.60308 9.160304,5.4689 3.0016924,0.6642 7.7611554,0.43787 10.4286364,-0.49591 4.730248,-1.65588 8.19625,-5.01246 9.600872,-9.29779 0.264489,-0.80692 0.381596,-5.02926 0.492964,-17.7742 0.142767,-16.33755 0.158398,-16.73276 0.690727,-17.4625 1.8665556,-2.55874 6.4670006,-2.51204 8.0795596,0.082 l 0.636201,1.02343 0.0713,24.34167 0.0713,24.34166 -0.600469,1.17514 c -0.89271,1.74705 -1.726346,2.23809 -3.987332,2.3487 -1.652135,0.0808 -2.02442,0.0112 -2.80652,-0.5247 -1.3864776,-0.95006 -1.9233326,-1.85843 -2.1070596,-3.5652 -0.217281,-2.01849 -0.625904,-2.08427 -2.670453,-0.42995 -2.156103,1.74458 -5.207574,3.32733 -8.079107,4.1905 -2.083457,0.62628 -2.927205,0.72724 -6.746875,0.80735 -3.5171524,0.0738 -4.8027174,-0.004 -6.6145844,-0.39824 z m 200.232811,0.10605 c -11.07086,-1.81451 -19.05146,-9.13228 -21.93566,-20.11381 -0.56141,-2.13763 -0.62357,-2.92265 -0.60732,-7.67292 0.0167,-4.86329 0.0751,-5.50433 0.72234,-7.91862 2.33619,-8.71442 8.37568,-15.31341 16.75651,-18.30883 6.03626,-2.15745 13.97172,-2.2685 19.80528,-0.27717 8.14573,2.78061 14.20003,8.81918 16.95421,16.91015 1.60726,4.72166 1.8928,12.57512 0.63265,17.39968 -2.61747,10.02105 -9.5122,16.91091 -19.48837,19.47466 -3.3071,0.84988 -9.30269,1.08657 -12.83964,0.50686 z m 10.09202,-8.48804 c 6.39292,-1.47961 11.43194,-6.61135 13.28738,-13.53185 0.78169,-2.91562 0.78243,-8.35088 0.003,-11.26321 -1.76057,-6.5657 -6.16413,-11.30025 -12.43211,-13.36648 -1.72784,-0.56957 -2.53828,-0.67191 -5.46807,-0.69045 -4.94855,-0.0313 -8.06347,0.93614 -11.69762,3.63317 -2.99715,2.22427 -5.62526,6.30277 -6.74146,10.46189 -0.76951,2.86728 -0.76538,8.32855 0.008,11.21425 2.02565,7.55357 7.73023,12.76394 15.26503,13.94258 1.97408,0.30879 5.49767,0.12761 7.77685,-0.3999 z m 54.94875,8.59832 c -6.88335,-0.7987 -14.04966,-3.81058 -17.44578,-7.33217 -1.09791,-1.13848 -1.44756,-2.42161 -1.12638,-4.13362 0.33642,-1.79321 2.87343,-3.59893 5.05648,-3.59893 1.48817,0 1.82028,0.17136 4.19298,2.16356 2.22306,1.86656 5.30596,3.44585 8.23558,4.21889 2.76532,0.72967 8.3684,0.80236 11.06324,0.14352 6.12513,-1.4975 8.97908,-5.68663 6.7932,-9.97129 -1.40401,-2.75213 -5.26611,-4.69923 -12.34988,-6.22627 -9.33227,-2.01176 -13.43715,-3.72387 -16.92008,-7.05725 -2.89115,-2.76704 -3.95456,-5.60798 -3.74308,-9.99976 0.10988,-2.28177 0.23744,-2.8266 1.0746,-4.58942 1.90249,-4.00608 6.32299,-7.1627 12.09763,-8.63871 4.29231,-1.09712 11.02079,-1.01947 15.875,0.18322 6.59807,1.63475 12.7,6.35312 12.7,9.8204 0,2.20685 -1.53464,3.49478 -4.16425,3.49478 -1.81666,0 -2.64409,-0.37397 -5.22846,-2.36299 -3.78336,-2.91181 -7.20662,-3.87784 -12.94305,-3.65244 -3.68107,0.14464 -5.44594,0.58268 -7.72215,1.91664 -2.2411,1.31336 -3.14026,3.68071 -2.38491,6.27902 0.56841,1.95528 1.35623,2.84096 3.52981,3.9683 2.35003,1.21886 3.38246,1.53702 10.02731,3.09011 6.55871,1.53296 8.90297,2.29413 12.13882,3.94136 3.05623,1.55581 5.59734,3.99196 6.76365,6.48431 2.45158,5.23891 1.12924,12.11062 -3.13685,16.30125 -3.03172,2.97809 -7.48215,4.92069 -12.74799,5.5645 -2.53955,0.31048 -6.92677,0.30729 -9.63544,-0.007 z m -350.072542,-0.28573 c -1.160608,-0.42677 -2.480428,-1.78542 -2.779228,-2.861 -0.36122,-1.30025 -0.35268,-47.96639 0.009,-49.26862 0.53873,-1.93962 3.096948,-3.36078 5.379708,-2.98858 2.25598,0.36785 3.8728,2.11768 3.8728,4.1914 0,2.05756 0.53723,2.22133 2.33378,0.71144 2.67025,-2.24418 6.56274,-4.09028 10.43435,-4.9487 2.66304,-0.59046 8.13479,-0.58124 11.04437,0.0186 4.82932,0.99563 8.787479,3.13078 11.960354,6.45179 3.172095,3.3202 4.942845,6.74911 6.105057,11.82196 0.509066,2.22197 0.552553,3.39263 0.650139,17.50206 0.0754,10.90157 0.01929,15.43754 -0.201065,16.25589 -1.043696,3.876 -6.899674,4.6125 -8.694909,1.09354 -0.49598,-0.9722 -0.525312,-1.73676 -0.622112,-16.21611 -0.09695,-14.50179 -0.127217,-15.28816 -0.662744,-17.21815 -0.858237,-3.09299 -2.022542,-5.15748 -4.00743,-7.10577 -2.77832,-2.72711 -5.74738,-4.04183 -10.14527,-4.49241 -7.3132,-0.74926 -14.2072,2.54858 -16.85806,8.06428 -0.41962,0.87313 -0.89199,2.29398 -1.04971,3.15745 -0.18483,1.01192 -0.28676,7.08145 -0.28676,17.07572 v 15.50576 l -0.59531,1.17449 c -0.33257,0.65613 -0.97001,1.38945 -1.44431,1.66155 -1.03485,0.59369 -3.36318,0.81035 -4.44267,0.41341 z m -55.993658,-0.24273 c -5.41051,-1.28034 -9.52928,-6.13216 -10.99238,-12.94876 -0.45132,-2.10271 -0.48271,-4.21902 -0.48271,-32.54375 0,-30.08394 0.004,-30.30123 0.54347,-31.21993 1.8589,-3.16437 6.9096,-3.00606 8.41285,0.26368 0.221,0.48072 0.34025,9.01179 0.43639,31.22083 l 0.13229,30.55938 0.58994,1.45521 c 0.73995,1.82523 2.0197,3.39619 3.15209,3.86932 0.47915,0.20021 1.76557,0.36401 2.8587,0.36401 3.32162,0 4.80668,0.9558 5.44911,3.50711 0.5951,2.36337 -0.85705,4.68033 -3.41343,5.44624 -1.16829,0.35003 -5.25101,0.36631 -6.68632,0.0267 z m 24.92945,-0.29233 c -0.49594,-0.33984 -1.15079,-0.954 -1.45521,-1.36481 -0.55105,-0.74363 -0.5538,-0.85543 -0.62367,-25.3365 -0.0684,-23.96324 -0.057,-24.61544 0.44778,-25.60485 0.62501,-1.22512 1.4492,-1.80208 3.12473,-2.18741 2.38663,-0.54887 4.66354,0.59427 5.4824,2.75248 0.37942,1.00002 0.41604,3.63751 0.34973,25.19404 -0.0724,23.53179 -0.086,24.09743 -0.60321,24.97546 -0.89578,1.52079 -1.77522,1.99156 -3.91603,2.09629 -1.65214,0.0808 -2.02442,0.0112 -2.80652,-0.5247 z m 163.42535,0.15856 c -1.338961,-0.72651 -1.981975,-2.9262 -1.444527,-4.94159 0.106418,-0.39906 4.00145,-5.49245 8.655624,-11.31865 4.654177,-5.8262 8.462139,-10.706 8.462139,-10.844 0,-0.23198 -2.779638,-3.55613 -13.051903,-15.60867 -4.815724,-5.65033 -5.182034,-6.18544 -5.35972,-7.82958 -0.163688,-1.51463 0.381182,-2.79348 1.557932,-3.65657 1.019517,-0.74778 3.40758,-0.74994 4.684999,-0.004 0.544573,0.3179 4.434509,4.71562 9.474443,10.71122 6.29412,7.4876 8.698288,10.17188 9.110414,10.17188 0.426984,0 2.385306,-2.41343 8.250502,-10.16791 4.229843,-5.59235 8.024119,-10.4124 8.431726,-10.71121 1.038365,-0.76123 3.565189,-0.76109 4.603215,2.6e-4 1.548474,1.13574 2.107518,3.57002 1.276583,5.55873 -0.320654,0.76743 -3.602323,5.12939 -16.349723,21.7319 -0.370914,0.48308 -0.06175,0.88388 8.802782,11.41171 4.438386,5.27119 8.213249,9.9062 8.388589,10.30004 0.818785,1.83913 0.210052,4.03766 -1.414516,5.10871 -0.867452,0.5719 -3.36669,0.68781 -4.425781,0.20526 -0.358383,-0.16329 -4.484624,-4.86626 -9.169421,-10.45104 -4.684794,-5.58479 -8.684794,-10.15416 -8.888886,-10.15416 -0.204092,0 -3.911814,4.43357 -8.239384,9.85237 -4.32757,5.41881 -8.27287,10.12178 -8.767331,10.45104 -1.070428,0.71282 -3.438554,0.80805 -4.587756,0.1845 z m 63.295538,-0.18114 c -0.481073,-0.32742 -1.12376,-0.93142 -1.428181,-1.34223 -0.550754,-0.74322 -0.553887,-0.86709 -0.632349,-25.00313 -0.0543,-16.7028 0.0095,-24.56084 0.204896,-25.23449 0.891889,-3.07501 5.206661,-4.05137 7.808496,-1.76693 0.50988,0.44766 1.03568,1.23473 1.18568,1.7748 0.17377,0.62559 0.27006,9.43564 0.27101,24.79301 l 0.003,23.82258 -0.59531,1.17841 c -0.8798,1.7392 -1.99319,2.3733 -4.168356,2.3733 -1.403959,0 -1.956223,-0.12413 -2.648532,-0.59532 z m 43.923532,0.19652 c -6.12442,-1.49285 -10.84911,-6.39994 -12.75035,-13.2426 -0.56028,-2.01645 -0.58976,-2.69437 -0.72977,-16.78569 l -0.14592,-14.68437 -3.30729,-0.14416 c -3.71033,-0.16173 -4.70429,-0.5044 -5.56697,-1.91921 -1.09699,-1.79911 -0.42444,-4.41276 1.38809,-5.39448 0.65201,-0.35315 1.70481,-0.50637 4.17888,-0.60816 l 3.30729,-0.13607 0.13229,-8.33438 c 0.12258,-7.72309 0.17111,-8.40027 0.66146,-9.23276 0.94586,-1.60584 1.76437,-2.01203 4.05429,-2.01203 2.36611,0 3.35515,0.5151 4.18132,2.1776 0.44243,0.8903 0.50985,1.87808 0.62793,9.19948 l 0.13229,8.20209 5.29167,0.13229 c 4.69641,0.11741 5.39583,0.19283 6.21771,0.67046 2.47084,1.43592 2.43927,5.29831 -0.0544,6.65838 -0.72832,0.39723 -1.74146,0.4972 -6.16326,0.60816 l -5.29167,0.13279 v 14.41979 c 0,14.40363 0,14.42147 0.60413,15.91392 0.73482,1.8173 2.33637,3.69257 3.9725,4.65141 1.10697,0.64872 1.53379,0.72633 4.72033,0.85825 2.97947,0.12335 3.61206,0.22623 4.23058,0.68801 1.47646,1.10232 1.8183,1.84581 1.8183,3.95458 0,1.8673 -0.0394,1.99164 -0.92604,2.92256 -0.50933,0.53476 -1.30916,1.13668 -1.77745,1.33761 -1.10709,0.47505 -6.8086,0.45338 -8.80589,-0.0335 z"
           id="path981"
           inkscape:connector-curvature="0" />
      </g>
    </g>
  </g>
</svg>
